<svg xmlns="http://www.w3.org/2000/svg" viewBox="0 0 64 64">
  <defs>
    <radialGradient id="partSun" cx="35%" cy="35%" r="70%">
      <stop offset="0%" stop-color="#fffdf2" />
      <stop offset="58%" stop-color="#ffd86f" />
      <stop offset="100%" stop-color="#ff9f38" />
    </radialGradient>
    <linearGradient id="partCloud" x1="0%" y1="0%" x2="100%" y2="100%">
      <stop offset="0%" stop-color="#ffffff" />
      <stop offset="100%" stop-color="#c9dbff" />
    </linearGradient>
    <linearGradient id="partEdge" x1="0%" y1="0%" x2="100%" y2="0%">
      <stop offset="0%" stop-color="#8cf7ff" />
      <stop offset="100%" stop-color="#ff79e9" />
    </linearGradient>
    <filter id="partGlow" x="-35%" y="-35%" width="180%" height="180%">
      <feDropShadow dx="0" dy="0" stdDeviation="2.2" flood-color="#7eefff" flood-opacity="0.9" />
      <feDropShadow dx="0" dy="0" stdDeviation="4" flood-color="#8d60ff" flood-opacity="0.3" />
    </filter>
  </defs>
  <g filter="url(#partGlow)">
    <circle cx="24" cy="24" r="9" fill="url(#partSun)" />
    <g fill="none" stroke="url(#partEdge)" stroke-width="2.5" stroke-linecap="round">
      <path d="M24 8v5M24 35v5M8 24h5M35 24h5M13 13l4 4M31 31l4 4" />
    </g>
    <path
      d="M20 47h25a8.5 8.5 0 0 0 .6-17 13.5 13.5 0 0 0-26.6-3.5A10.5 10.5 0 0 0 20 47Z"
      fill="url(#partCloud)"
      stroke="url(#partEdge)"
      stroke-width="2.5"
      stroke-linejoin="round"
    />
  </g>
</svg>
