<?xml version="1.0" standalone="no"?><!DOCTYPE svg PUBLIC "-//W3C//DTD SVG 1.1//EN" "http://www.w3.org/Graphics/SVG/1.1/DTD/svg11.dtd"><svg t="1777710624241" class="icon" viewBox="0 0 1512 1024" version="1.1" xmlns="http://www.w3.org/2000/svg" p-id="12930" xmlns:xlink="http://www.w3.org/1999/xlink" width="295.3125" height="200"><path d="M1171.72459 1024h-867.881967c-159.47541-10.072131-288.734426-135.97377-302.163934-292.091803-11.75082-142.688525 75.540984-275.304918 209.836065-325.665574 3.357377-221.586885 186.334426-402.885246 412.957377-406.242623 208.157377 1.678689 379.383607 152.760656 409.6 349.167213h144.367213c188.013115 5.036066 334.059016 152.760656 334.059017 337.416394 0 184.655738-146.045902 332.380328-334.059017 337.416393h-6.714754z m-862.845901-100.721311h866.203278c130.937705-3.357377 235.016393-107.436066 235.016394-236.695082 0-129.259016-104.078689-233.337705-235.016394-236.695082h-236.695082l-1.678688-48.681968c-6.714754-166.190164-142.688525-297.127869-313.914754-300.485246-172.904918 3.357377-313.914754 144.367213-312.236066 315.593443v20.144262l6.714754 47.003279-45.32459 10.072131c-107.436066 25.180328-181.298361 124.222951-171.22623 229.980328 10.072131 105.757377 99.042623 191.370492 208.157378 199.763935z" fill="#1296db" p-id="12931"></path></svg>