<?xml version="1.0" standalone="no"?><!DOCTYPE svg PUBLIC "-//W3C//DTD SVG 1.1//EN" "http://www.w3.org/Graphics/SVG/1.1/DTD/svg11.dtd"><svg t="1777712023390" class="icon" viewBox="0 0 1024 1024" version="1.1" xmlns="http://www.w3.org/2000/svg" p-id="2595" xmlns:xlink="http://www.w3.org/1999/xlink" width="200" height="200"><path d="M245.17 553.84H137.51c-9.91 0-17.94 8.04-17.94 17.95s8.03 17.94 17.94 17.94h107.67c9.91 0 17.94-8.03 17.94-17.94-0.01-9.91-8.04-17.95-17.95-17.95zM891.17 553.84H783.5c-9.91 0-17.94 8.04-17.94 17.94 0 9.92 8.03 17.95 17.94 17.95h107.67c9.91 0 17.94-8.03 17.94-17.94 0-9.91-8.03-17.95-17.94-17.95z" fill="#F6BB42" p-id="2596"></path><path d="M768.11 292.64l-76.14 76.14c-7 7.01-7 18.36 0 25.37 7.01 7.02 18.37 7.02 25.38 0l76.14-76.12c7-7.01 7-18.37 0-25.38-7.01-7.01-18.37-7.01-25.38-0.01z" fill="#FFCE54" p-id="2597"></path><path d="M496.4 194.97v107.67c0 9.91 8.03 17.94 17.94 17.94 9.91 0 17.94-8.03 17.94-17.94V194.97c0-9.91-8.03-17.95-17.94-17.95-9.91-0.01-17.94 8.03-17.94 17.95z" fill="#F6BB42" p-id="2598"></path><path d="M235.2 318.02l76.12 76.14c7.01 7 18.37 7 25.38 0 7-7.01 7-18.37 0-25.38l-76.14-76.14c-7.01-7.01-18.36-7.01-25.37 0-7.01 7.01-7.01 18.38 0.01 25.38zM330.01 643.57c-8.93-22.83-13.43-46.92-13.43-71.77 0-109.05 88.71-197.76 197.76-197.76S712.1 462.75 712.1 571.8c0 24.85-4.51 48.94-13.43 71.77H330.01z" fill="#FFCE54" p-id="2599"></path><path d="M514.34 356.08c-119.13 0-215.7 96.57-215.7 215.71 0 32.01 6.98 62.39 19.49 89.71h392.42c12.51-27.32 19.49-57.7 19.49-89.71 0-119.13-96.58-215.71-215.7-215.71z m171.63 269.55H342.7c-5.44-17.31-8.19-35.34-8.19-53.83 0-48.04 18.7-93.2 52.68-127.16 33.96-33.96 79.1-52.66 127.14-52.66 48.04 0 93.18 18.7 127.14 52.66 33.97 33.96 52.68 79.12 52.68 127.16 0.01 18.49-2.74 36.52-8.18 53.83z" fill="#F6BB42" p-id="2600"></path><path d="M565.09 740.72l-38.07-38.06v-0.01a17.875 17.875 0 0 0-12.68-5.24c-4.94 0-9.42 2-12.67 5.23 0 0-0.01 0.01-0.01 0.03l-38.07 38.06c-7.01 7-7.01 18.36 0 25.38 3.51 3.5 8.09 5.25 12.69 5.25 4.59 0 9.19-1.75 12.68-5.25l7.44-7.44v64.35c0 9.91 8.03 17.95 17.94 17.95 9.91 0 17.94-8.04 17.94-17.95v-64.35l7.44 7.44c3.5 3.51 8.1 5.26 12.68 5.26 4.6 0 9.19-1.75 12.69-5.26 7.01-7.02 7.01-18.39 0-25.39z" fill="#ED5564" p-id="2601"></path><path d="M927.06 625.63H101.61c-9.91 0-17.94 8.03-17.94 17.94 0 9.91 8.03 17.94 17.94 17.94h825.45c9.91 0 17.94-8.03 17.94-17.94 0-9.91-8.03-17.94-17.94-17.94z" fill="#656D78" p-id="2602"></path></svg>