<?xml version="1.0" standalone="no"?><!DOCTYPE svg PUBLIC "-//W3C//DTD SVG 1.1//EN" "http://www.w3.org/Graphics/SVG/1.1/DTD/svg11.dtd"><svg t="1777712064766" class="icon" viewBox="0 0 1024 1024" version="1.1" xmlns="http://www.w3.org/2000/svg" p-id="3682" xmlns:xlink="http://www.w3.org/1999/xlink" width="200" height="200"><path d="M247.8 555.9H142.38c-9.7 0-17.57 7.87-17.57 17.58 0 9.7 7.86 17.56 17.57 17.56H247.8c9.7 0 17.56-7.86 17.56-17.56s-7.86-17.58-17.56-17.58zM880.29 555.9H774.88c-9.7 0-17.57 7.87-17.57 17.58 0 9.7 7.86 17.56 17.57 17.56H880.3c9.7 0 17.56-7.86 17.56-17.56S890 555.9 880.29 555.9z" fill="#F6BB42" p-id="3683"></path><path d="M759.81 300.16l-74.54 74.54c-6.86 6.86-6.86 17.98 0 24.85 6.86 6.86 17.99 6.86 24.85 0l74.54-74.54c6.86-6.86 6.86-17.99 0-24.85-6.87-6.86-17.99-6.86-24.85 0z" fill="#FFCE54" p-id="3684"></path><path d="M493.77 204.53v105.42c0 9.7 7.86 17.56 17.57 17.56 9.7 0 17.56-7.86 17.56-17.56V204.53c0-9.7-7.86-17.58-17.56-17.58-9.71 0-17.57 7.87-17.57 17.58z" fill="#F6BB42" p-id="3685"></path><path d="M238.03 325.01l74.53 74.54c6.86 6.86 17.99 6.86 24.85 0 6.86-6.87 6.86-17.99 0-24.85l-74.54-74.54c-6.86-6.86-17.98-6.86-24.84 0-6.87 6.86-6.87 17.99 0 24.85zM330.86 643.76c-8.74-22.35-13.15-45.94-13.15-70.27 0-106.77 86.86-193.63 193.63-193.63s193.63 86.86 193.63 193.63c0 24.33-4.41 47.92-13.15 70.27H330.86z" fill="#FFCE54" p-id="3686"></path><path d="M511.34 362.28c-116.64 0-211.19 94.56-211.19 211.21 0 31.35 6.83 61.09 19.08 87.84h384.22c12.25-26.75 19.08-56.49 19.08-87.84 0-116.66-94.56-211.21-211.19-211.21z m168.04 263.91H343.29c-5.33-16.95-8.02-34.6-8.02-52.71 0-47.03 18.31-91.25 51.58-124.5 33.25-33.25 77.45-51.56 124.49-51.56 47.03 0 91.23 18.31 124.49 51.56 33.26 33.25 51.58 77.46 51.58 124.5-0.01 18.11-2.7 35.76-8.03 52.71z" fill="#F6BB42" p-id="3687"></path><path d="M461.64 794.59l37.28 37.28s0 0.01 0.01 0.01c3.18 3.17 7.57 5.13 12.4 5.13 4.84 0 9.23-1.97 12.4-5.13l0.01-0.01 37.28-37.27c6.86-6.86 6.86-17.99 0-24.85-3.43-3.44-7.92-5.15-12.43-5.15-4.49 0-8.98 1.71-12.42 5.15l-7.28 7.27v-63c0-9.7-7.86-17.56-17.56-17.56s-17.57 7.86-17.57 17.56v63l-7.28-7.27c-3.42-3.44-7.93-5.15-12.42-5.15-4.5 0-8.99 1.71-12.43 5.15-6.85 6.87-6.85 17.99 0.01 24.84z" fill="#ED5564" p-id="3688"></path><path d="M915.43 626.19h-808.2c-9.7 0-17.56 7.86-17.56 17.56s7.86 17.56 17.56 17.56h808.2c9.7 0 17.57-7.86 17.57-17.56s-7.86-17.56-17.57-17.56z" fill="#656D78" p-id="3689"></path></svg>