<?xml version="1.0" standalone="no"?><!DOCTYPE svg PUBLIC "-//W3C//DTD SVG 1.1//EN" "http://www.w3.org/Graphics/SVG/1.1/DTD/svg11.dtd"><svg t="1777710522409" class="icon" viewBox="0 0 1024 1024" version="1.1" xmlns="http://www.w3.org/2000/svg" p-id="10877" xmlns:xlink="http://www.w3.org/1999/xlink" width="200" height="200"><path d="M1015.36 11.968a27.84 27.84 0 0 0-22.144-10.88h-27.072c-264.448 0-473.536 0-627.84 38.464-83.072 20.48-147.648 51.968-196.864 95.552C88.576 182.592 52.288 244.16 30.72 324.288 16.64 377.6 9.856 473.728 38.144 568.64c10.432 34.624 25.792 67.328 46.72 97.472C23.424 776.448 0 834.176 0 993.28c0 16.64 12.928 30.784 29.504 30.784 16 0 29.504-13.44 29.504-30.784 0-234.112 99.072-343.104 178.368-430.336 5.568-5.76 11.072-12.16 16-17.28 60.864-63.552 129.792-117.376 199.232-155.264 64.64-35.2 126.08-54.464 173.44-54.464 16 0 29.568-13.44 29.568-30.784a30.208 30.208 0 0 0-29.568-30.784c-57.152 0-126.72 21.12-200.448 61.568-75.072 41.024-148.864 98.112-213.44 166.08-32.64 33.984-63.36 71.168-90.368 109.696a257.216 257.216 0 0 1-26.496-61.568c-25.792-88.512-16.576-173.824-6.72-210.368C162.944 61.312 445.888 60.672 958.72 61.312c-61.44 340.608-175.872 561.856-339.456 656.128-151.936 87.872-303.232 39.744-361.024 15.36a220.672 220.672 0 0 1-36.288-19.2 28.48 28.48 0 0 0-40 10.88 30.4 30.4 0 0 0-3.072 23.104 29.44 29.44 0 0 0 13.568 18.56c14.08 8.96 28.928 16.704 44.288 23.104a499.648 499.648 0 0 0 194.304 39.808c77.44 0 150.656-19.264 217.088-57.728 84.864-48.768 158.08-128.256 218.368-236.672 70.08-126.336 123.008-294.4 156.8-498.304 0-8.32-2.432-17.28-8-24.32z" fill="#6FB1FC" p-id="10878"></path></svg>