<?xml version="1.0" standalone="no"?><!DOCTYPE svg PUBLIC "-//W3C//DTD SVG 1.1//EN" "http://www.w3.org/Graphics/SVG/1.1/DTD/svg11.dtd"><svg t="1777710442174" class="icon" viewBox="0 0 1024 1024" version="1.1" xmlns="http://www.w3.org/2000/svg" p-id="7687" xmlns:xlink="http://www.w3.org/1999/xlink" width="200" height="200"><path d="M196.096 352.5632c15.9232-67.4816 53.6576-127.0784 105.2672-172.7488C360.96 130.1504 434.3808 102.4 511.7952 102.4c77.4656 0 152.9344 27.8016 210.4832 77.4144a321.0752 321.0752 0 0 1 105.216 172.7488 206.6432 206.6432 0 0 1 97.28 67.5328c29.7984 37.6832 47.6672 85.3504 47.6672 133.0176a210.5856 210.5856 0 0 1-210.432 210.432h-11.9296v-63.488h11.9296c81.408 0 146.944-65.536 146.944-146.944 0-69.5296-49.664-129.024-115.2-142.9504a29.5936 29.5936 0 0 1-23.808-25.8048A262.0416 262.0416 0 0 0 511.8464 167.936a261.9904 261.9904 0 0 0-258.1504 216.4224c-1.9456 11.8784-11.8784 23.808-23.808 25.8048-67.4816 13.8752-115.2 75.4176-115.2 142.9504 0 81.408 65.536 146.944 146.944 146.944h11.9296v63.488h-11.8784A210.5856 210.5856 0 0 1 51.2 553.1136c0-47.616 15.872-95.3344 47.616-133.0176a188.9792 188.9792 0 0 1 97.28-67.5328z m490.496 315.6992l-135.0656 223.9488-51.6096-37.7344 135.0144-223.9488 51.6096 37.7344z m-164.864 0l-134.9632 223.9488-51.6608-37.7344 135.0144-223.9488 51.6608 37.7344z" fill="#3598dc" p-id="7688"></path></svg>