<?xml version="1.0" standalone="no"?><!DOCTYPE svg PUBLIC "-//W3C//DTD SVG 1.1//EN" "http://www.w3.org/Graphics/SVG/1.1/DTD/svg11.dtd"><svg t="1777710583780" class="icon" viewBox="0 0 1024 1024" version="1.1" xmlns="http://www.w3.org/2000/svg" p-id="11942" xmlns:xlink="http://www.w3.org/1999/xlink" width="200" height="200"><path d="M734.506667 516.906667H170.666667v-42.666667h563.84a97.28 97.28 0 0 0 0-194.346667v-42.666666a139.946667 139.946667 0 0 1 0 279.68z" fill="#5879FB" p-id="11943"></path><path d="M517.76 332.586667H170.666667v-42.666667h347.093333a51.626667 51.626667 0 1 0 0-103.04v-42.666667a94.293333 94.293333 0 1 1 0 188.373334z" fill="#2FDDDC" p-id="11944"></path><path d="M595.413333 879.786667v-42.666667a67.84 67.84 0 0 0 0-135.68H170.666667v-42.666667h424.746666a110.506667 110.506667 0 1 1 0 221.013334z" fill="#5879FB" p-id="11945"></path></svg>